<svg width="24" height="27" viewBox="0 0 24 27" fill="none" xmlns="http://www.w3.org/2000/svg">
<path d="M1 0.9V0.4C0.723858 0.4 0.5 0.623858 0.5 0.9H1ZM1 24.3H0.5C0.5 24.5761 0.723858 24.8 1 24.8V24.3ZM5.9 0V27H6.9V0H5.9ZM1 1.4H19V0.4H1V1.4ZM22.1 4.5V20.7H23.1V4.5H22.1ZM19 23.8H1V24.8H19V23.8ZM1.5 24.3V0.9H0.5V24.3H1.5ZM22.1 20.7C22.1 22.4121 20.7121 23.8 19 23.8V24.8C21.2644 24.8 23.1 22.9644 23.1 20.7H22.1ZM19 1.4C20.7121 1.4 22.1 2.78792 22.1 4.5H23.1C23.1 2.23563 21.2644 0.4 19 0.4V1.4ZM10.9 8.6H18.1V7.6H10.9V8.6Z" fill="#1D1929"/>
</svg>
