<svg width="27" height="27" viewBox="0 0 27 27" fill="none" xmlns="http://www.w3.org/2000/svg">
<path d="M8.09995 12.9918H7.59995V13.9918H8.09995V12.9918ZM18.9 13.9918H19.4V12.9918H18.9V13.9918ZM8.09995 18.4H7.59995V19.4H8.09995V18.4ZM18.9 19.4H19.4V18.4H18.9V19.4ZM8.09995 7.59528H7.59995V8.59528H8.09995V7.59528ZM18.9 8.59528H19.4V7.59528H18.9V8.59528ZM24.3 6.3H24.8V6.0929L24.6535 5.94645L24.3 6.3ZM18.9 0.900002L19.2535 0.546448L19.1071 0.400002H18.9V0.900002ZM8.09995 13.9918H18.9V12.9918H8.09995V13.9918ZM8.09995 19.4H18.9V18.4H8.09995V19.4ZM8.09995 8.59528H18.9V7.59528H8.09995V8.59528ZM22.5 25.6H4.49995V26.6H22.5V25.6ZM3.19995 24.3V2.7H2.19995V24.3H3.19995ZM23.8 6.3V24.3H24.8V6.3H23.8ZM4.49995 1.4H18.9V0.400002H4.49995V1.4ZM18.5464 1.25355L23.9464 6.65355L24.6535 5.94645L19.2535 0.546448L18.5464 1.25355ZM4.49995 25.6C3.78198 25.6 3.19995 25.018 3.19995 24.3H2.19995C2.19995 25.5703 3.2297 26.6 4.49995 26.6V25.6ZM22.5 26.6C23.7702 26.6 24.8 25.5703 24.8 24.3H23.8C23.8 25.018 23.2179 25.6 22.5 25.6V26.6ZM3.19995 2.7C3.19995 1.98203 3.78198 1.4 4.49995 1.4V0.400002C3.2297 0.400002 2.19995 1.42975 2.19995 2.7H3.19995Z" fill="#1D1929"/>
</svg>
